<?xml version="1.0" standalone="no"?>
<!DOCTYPE svg PUBLIC "-//W3C//DTD SVG 20010904//EN"
 "http://www.w3.org/TR/2001/REC-SVG-20010904/DTD/svg10.dtd">
<svg version="1.0" xmlns="http://www.w3.org/2000/svg"
 width="300.000000pt" height="287.000000pt" viewBox="0 0 300.000000 287.000000"
 preserveAspectRatio="xMidYMid meet">
<metadata>
Created by potrace 1.10, written by Peter Selinger 2001-2011
</metadata>
<g transform="translate(0.000000,287.000000) scale(0.100000,-0.100000)"
fill="#000000" stroke="none">
<path d="M1121 2375 c-90 -28 -161 -132 -161 -235 1 -95 57 -187 145 -233 30
-16 61 -22 128 -23 110 -4 149 -16 197 -64 l37 -37 7 60 c9 93 7 231 -5 289
-26 119 -103 214 -200 242 -63 19 -90 19 -148 1z m191 -52 c49 -27 85 -70 114
-138 20 -46 33 -300 17 -316 -7 -7 -24 -3 -49 12 -31 18 -62 23 -150 28 -107
6 -112 8 -160 43 -78 58 -114 146 -93 231 37 155 178 217 321 140z"/>
<path d="M1704 2311 c-82 -21 -146 -92 -159 -176 -20 -121 81 -234 208 -235
161 -1 262 186 173 321 -46 69 -146 109 -222 90z m107 -45 c19 -8 50 -31 69
-51 33 -34 35 -40 35 -104 0 -59 -4 -72 -29 -105 -37 -50 -85 -69 -154 -64
-62 5 -98 28 -129 84 -78 136 64 300 208 240z"/>
<path d="M1527 1858 c-19 -241 3 -348 92 -441 53 -57 105 -81 159 -73 95 13
176 70 213 151 23 49 25 161 5 209 -38 92 -137 156 -241 156 -33 0 -85 6 -115
14 -37 10 -57 11 -61 4 -4 -7 -9 -7 -13 0 -3 6 -1 12 5 14 5 2 -1 14 -14 26
l-24 23 -6 -83z m118 -13 c33 -8 85 -15 115 -15 132 -1 220 -93 222 -230 2
-127 -96 -228 -222 -230 -81 0 -168 90 -200 210 -13 46 -15 211 -4 255 7 29
10 29 89 10z"/>
<path d="M1169 1817 c-57 -21 -97 -54 -126 -105 -23 -39 -28 -59 -28 -117 0
-59 5 -78 28 -118 69 -117 220 -151 334 -74 145 98 129 321 -29 403 -42 22
-134 28 -179 11z m188 -63 c44 -35 83 -105 83 -149 0 -122 -92 -212 -210 -203
-175 13 -243 227 -108 342 47 40 63 45 140 42 47 -2 65 -8 95 -32z"/>
<path d="M612 1241 c-11 -7 -14 -56 -13 -241 2 -208 4 -237 21 -270 38 -75
115 -120 202 -120 178 1 283 194 188 344 -60 94 -190 130 -287 79 l-43 -23 0
108 c0 109 -7 132 -39 132 -9 0 -22 -4 -29 -9z m49 -237 c9 -11 24 -15 49 -11
l35 5 -47 -50 c-27 -28 -48 -57 -48 -64 0 -8 -5 -14 -11 -14 -6 0 -9 28 -8 75
2 77 7 87 30 59z m242 -60 c53 -38 72 -117 42 -174 -34 -66 -104 -92 -173 -65
-110 44 -121 182 -20 246 40 25 112 22 151 -7z"/>
<path d="M1122 1048 c-8 -8 -12 -56 -12 -148 0 -124 2 -141 23 -181 35 -66 93
-102 172 -107 52 -4 71 0 100 16 34 21 35 21 45 2 14 -26 56 -26 70 -1 6 12
10 98 10 209 0 176 -1 190 -20 207 -17 15 -24 16 -45 7 -25 -11 -25 -13 -25
-139 0 -146 -13 -183 -75 -209 -45 -18 -63 -18 -104 4 -58 31 -71 69 -71 207
0 123 -6 145 -40 145 -9 0 -21 -5 -28 -12z m366 -350 c-3 -31 -4 -32 -50 -33
-53 0 -58 4 -29 22 11 7 32 34 48 60 l28 48 3 -32 c2 -18 2 -47 0 -65z"/>
<path d="M1602 1048 c-16 -16 -15 -53 2 -67 10 -8 50 -11 125 -9 61 2 111 2
111 0 0 -2 -57 -70 -126 -153 -103 -123 -125 -154 -122 -177 l3 -27 185 0 185
0 0 35 0 35 -123 5 -123 5 119 141 c143 169 146 174 126 202 -14 21 -22 22
-183 22 -116 0 -171 -4 -179 -12z m318 -43 c0 -8 -13 -29 -30 -47 l-29 -33 -1
26 c0 15 -7 32 -15 39 -26 21 -17 30 30 30 33 0 45 -4 45 -15z m-204 -325 c25
-21 15 -30 -31 -30 -53 0 -57 12 -17 53 25 26 27 27 30 9 2 -12 10 -26 18 -32z"/>
<path d="M2046 1041 c-23 -25 -13 -59 19 -67 13 -3 69 -4 124 -2 94 3 116 -1
91 -17 -11 -7 -194 -224 -229 -271 -19 -26 -21 -35 -12 -53 11 -20 19 -21 185
-21 189 0 205 4 192 55 l-6 25 -125 0 -125 0 79 93 c43 50 102 119 130 152 54
64 63 98 32 115 -11 6 -88 10 -179 10 -144 0 -161 -2 -176 -19z m321 -38 c3
-7 -12 -29 -32 -50 -34 -36 -35 -37 -29 -11 4 19 0 32 -15 47 -12 12 -21 23
-21 27 0 11 94 -1 97 -13z m-220 -283 c-3 -11 3 -30 14 -44 l19 -24 -30 -6
c-16 -3 -39 -2 -50 2 -20 8 -20 9 10 50 33 46 45 53 37 22z"/>
</g>
</svg>
