<?xml version="1.0" encoding="UTF-8"?>
<svg version="1.1" xmlns="http://www.w3.org/2000/svg" width="980" height="936">
<path d="M0 0 C323.4 0 646.8 0 980 0 C980 308.88 980 617.76 980 936 C656.6 936 333.2 936 0 936 C0 627.12 0 318.24 0 0 Z " fill="#FEFEFE" transform="translate(0,0)"/>
<path d="M0 0 C1.09642822 -0.02223633 2.19285645 -0.04447266 3.32250977 -0.06738281 C10.94022479 -0.04676808 16.90485863 1.43174313 23.875 4.4375 C24.968125 4.85773438 26.06125 5.27796875 27.1875 5.7109375 C38.80432389 10.4724845 48.4479993 16.08913731 57.875 24.4375 C58.51179687 24.99050781 59.14859375 25.54351562 59.8046875 26.11328125 C74.74918531 39.99031493 82.65779394 60.21250663 87.875 79.4375 C88.20741699 80.65937012 88.53983398 81.88124023 88.88232422 83.14013672 C89.98105469 87.58725942 90.54461228 92.01556188 90.984375 96.5703125 C91.06846619 97.43399445 91.15255737 98.29767639 91.23919678 99.18753052 C92.13814929 109.22500642 92.18049723 119.24223634 92.125 129.3125 C92.12256287 130.28529907 92.12012573 131.25809814 92.11761475 132.26037598 C92.0518613 154.76093063 90.95002533 177.12720985 87.875 199.4375 C84.43069981 198.28939994 84.01458351 197.22578249 82.13671875 194.30078125 C73.44453866 181.46434192 60.43715647 173.98713612 45.875 169.4375 C45.17487793 169.17275879 44.47475586 168.90801758 43.75341797 168.63525391 C33.40379888 165.15293057 22.40764329 166.3050066 11.6484375 166.64990234 C-13.5398208 167.3984727 -34.47664345 160.89358457 -53.125 143.4375 C-67.30352584 129.6484941 -78.75588778 108.97026721 -79.55859375 88.984375 C-79.58201919 86.71887073 -79.58273516 84.45303501 -79.5625 82.1875 C-79.55492676 80.99745361 -79.54735352 79.80740723 -79.53955078 78.58129883 C-79.37131129 69.58416991 -78.36152359 61.89291789 -75.125 53.4375 C-74.7125 52.27734375 -74.3 51.1171875 -73.875 49.921875 C-66.65212513 31.29014096 -52.4752879 14.77247137 -34.3046875 6.08984375 C-31.60358523 5.05428996 -28.90939753 4.21950101 -26.125 3.4375 C-24.80822266 2.99277344 -24.80822266 2.99277344 -23.46484375 2.5390625 C-15.7109363 0.2640264 -8.03889315 0.09268039 0 0 Z " fill="#F8BA16" transform="translate(392.125,156.5625)"/>
<path d="M0 0 C3.22644803 1.53482669 5.42100458 3.20130934 8 5.6875 C16.78597453 13.59774831 26.5323254 18.29644766 38 21 C39.12196777 21.26490234 39.12196777 21.26490234 40.26660156 21.53515625 C47.96210844 23.15587225 55.5670956 23.27240856 63.39105225 23.34851074 C75.98110562 23.49779855 87.98414243 23.83525312 100 28 C101.05960938 28.3609375 102.11921875 28.721875 103.2109375 29.09375 C116.43707275 34.12580146 127.09241718 42.12168626 137 52 C137.98419922 52.94939453 137.98419922 52.94939453 138.98828125 53.91796875 C153.46056138 68.98910185 159.5381115 91.07192706 159.3359375 111.51171875 C158.26059674 131.18334489 151.1357391 150.31887983 138 165 C137.36320313 165.82371094 136.72640625 166.64742187 136.0703125 167.49609375 C123.28320657 182.96125394 101.77417709 192.29290904 82.24609375 194.40625 C63.37285158 196.11561874 50.58186927 190.95268341 36 179 C22.02150944 166.52773312 12.12924343 152.29283426 5 135 C4.27683594 133.25783203 4.27683594 133.25783203 3.5390625 131.48046875 C-3.32471271 113.61385388 -5.22643186 95.28510079 -5.25 76.3125 C-5.25200409 75.52830688 -5.25400818 74.74411377 -5.256073 73.93615723 C-5.26634654 57.3936512 -3.89875188 41.15517215 -1.69897461 24.75585938 C-0.99863475 19.50886871 -0.68502407 14.28321869 -0.4375 9 C-0.37272461 7.69482422 -0.37272461 7.69482422 -0.30664062 6.36328125 C-0.20175782 4.24231781 -0.10049925 2.12117567 0 0 Z " fill="#F9B81A" transform="translate(500,304)"/>
<path d="M0 0 C3.92484202 2.10778553 6.72099699 4.16848111 9 8 C9.36076355 11.06256104 9.36076355 11.06256104 9.34057617 14.69628906 C9.34123329 15.69202942 9.34123329 15.69202942 9.34190369 16.70788574 C9.33981971 18.89410182 9.31650855 21.0795435 9.29296875 23.265625 C9.28737137 24.7844806 9.28310194 26.30334163 9.28010559 27.82220459 C9.2686679 31.81391432 9.23921027 35.805295 9.20599365 39.796875 C9.1752694 43.87235056 9.16159524 47.94787944 9.14648438 52.0234375 C9.11433928 60.01577577 9.06315624 68.00784691 9 76 C9.75694656 75.58554626 10.51389313 75.17109253 11.29377747 74.74407959 C12.28584702 74.20172668 13.27791656 73.65937378 14.30004883 73.10058594 C15.28387039 72.5623822 16.26769196 72.02417847 17.28132629 71.46966553 C36.26990371 61.20478616 56.15742555 59.57995669 77 65 C86.45804656 67.92128542 94.3756368 72.77795399 102 79 C103.20462891 79.9590625 103.20462891 79.9590625 104.43359375 80.9375 C117.42121412 91.80066982 126.14222234 108.19706456 128 125 C129.66671393 147.80157257 124.74576053 166.50012101 110.4453125 184.55859375 C109 186 109 186 107 186 C106.67 186.99 106.34 187.98 106 189 C89.99633813 204.24545116 70.5442503 209.72327822 48.93359375 209.23828125 C32.53555366 208.60216389 17.15637216 202.04263046 5 191 C4.26652344 190.35804688 3.53304687 189.71609375 2.77734375 189.0546875 C-6.3638076 180.55639585 -12.48505504 170.60956093 -16.5 158.875 C-16.74322998 158.17189697 -16.98645996 157.46879395 -17.23706055 156.74438477 C-20.44123768 146.55905263 -20.15070168 135.66675799 -20.16113281 125.09057617 C-20.16609772 123.86136444 -20.17106262 122.63215271 -20.17617798 121.36569214 C-20.1881715 118.03337852 -20.19571187 114.70112663 -20.20018864 111.36879897 C-20.20314121 109.28150597 -20.20724946 107.19421819 -20.21169281 105.10692787 C-20.22531264 98.55929793 -20.23501091 92.01168022 -20.2388947 85.46403712 C-20.2433879 77.93427147 -20.26101707 70.4046862 -20.2898953 62.87497538 C-20.31153085 57.02923345 -20.32159967 51.18354228 -20.32293582 45.33776075 C-20.32398079 41.85617252 -20.32982501 38.37475517 -20.34775543 34.89320946 C-20.36734249 31.01623076 -20.36293971 27.13947812 -20.35644531 23.26245117 C-20.3656601 22.11892685 -20.37487488 20.97540253 -20.3843689 19.79722595 C-20.3526494 13.75491992 -20.00396496 9.29845625 -17 4 C-11.54986833 -1.17762508 -7.08337991 -1.57408443 0 0 Z " fill="#2D2A2A" transform="translate(214,529)"/>
<path d="M0 0 C0.82234131 0.00161133 1.64468262 0.00322266 2.49194336 0.00488281 C10.73795605 0.16686515 18.1780856 1.86641275 26 4.375 C26.91007812 4.66375 27.82015625 4.9525 28.7578125 5.25 C48.97639572 12.53129042 62.98673507 27.37798633 72.28393555 46.22045898 C80.63558548 64.0515743 80.2033336 85.03727937 73.6875 103.375 C66.06840062 124.0554126 51.1395471 139.46925203 31.23779297 148.78222656 C15.2231154 155.64434573 -5.8279758 156.46355438 -22.5625 151.375 C-25.8671875 149.9765625 -25.8671875 149.9765625 -29 148.375 C-30.76730469 147.52035156 -30.76730469 147.52035156 -32.5703125 146.6484375 C-41.26316795 142.20677282 -48.17200212 136.286777 -55 129.375 C-55.59296875 128.79234375 -56.1859375 128.2096875 -56.796875 127.609375 C-70.63788214 112.87539966 -75.72070147 92.58236114 -75.23828125 72.92578125 C-74.41149519 53.52685521 -66.21276668 36.41078413 -53 22.375 C-52.34 22.375 -51.68 22.375 -51 22.375 C-51 21.715 -51 21.055 -51 20.375 C-41.13550328 11.62987879 -29.78195471 5.5900929 -17 2.375 C-15.76765625 2.02695312 -14.5353125 1.67890625 -13.265625 1.3203125 C-8.8260071 0.22232021 -4.56104478 -0.00946373 0 0 Z " fill="#2D2A2A" transform="translate(405,338.625)"/>
<path d="M0 0 C3.51793819 2.47820323 6.7840851 5.14327979 10 8 C10.62519531 8.54269531 11.25039063 9.08539063 11.89453125 9.64453125 C23.40953242 20.32774904 30.46949778 35.10485472 31.5078125 50.7421875 C32.1909387 70.77725593 27.42848578 88.6701357 14 104 C13.47921875 104.60328125 12.9584375 105.2065625 12.421875 105.828125 C1.16585315 117.95840098 -15.41799812 125.57743367 -31.9453125 126.3359375 C-51.80682385 126.6818509 -67.71801576 122.19551407 -83 109 C-83.67804687 108.41734375 -84.35609375 107.8346875 -85.0546875 107.234375 C-98.29119445 94.97644249 -104.94732613 77.72924414 -106 60 C-106.34889934 41.61095217 -99.69227819 24.44859694 -87.09912109 11.14111328 C-63.80112872 -12.83676621 -28.79163294 -17.37081876 0 0 Z " fill="#2C292A" transform="translate(609,191)"/>
<path d="M0 0 C1.03487045 -0.00700928 2.06974091 -0.01401855 3.13597107 -0.02124023 C6.54860455 -0.03881085 9.96040531 -0.02720017 13.37304688 -0.01367188 C15.74906574 -0.01636704 18.12508354 -0.02024966 20.50109863 -0.02526855 C25.47756464 -0.03116237 30.45374321 -0.02260402 35.43017578 -0.00390625 C41.80590953 0.01888276 48.18096973 0.00575912 54.55667877 -0.01819611 C59.46206732 -0.03265696 64.36729644 -0.02804667 69.27268982 -0.01768494 C71.62340881 -0.01501847 73.97414233 -0.01828457 76.32484436 -0.02760315 C79.61148364 -0.03777298 82.89703537 -0.02226018 86.18359375 0 C87.15312485 -0.00809692 88.12265594 -0.01619385 89.12156677 -0.02453613 C96.15605407 0.06363457 99.74719379 1.89754897 104.96679688 6.70507812 C107.2836744 10.71505846 107.33666528 13.99348268 106.59179688 18.51757812 C104.21316366 24.20561408 100.31217405 28.15667861 96.15039062 32.64648438 C93.31143209 35.83218593 90.69723815 39.14101358 88.09179688 42.51757812 C84.17500312 47.58013762 80.09273717 52.39100152 75.75976562 57.10742188 C72.72288819 60.48355408 69.89052354 64.01284607 67.03320312 67.54101562 C64.30649204 70.86542178 61.52099665 74.13355847 58.71679688 77.39257812 C42.38915139 96.28333854 42.38915139 96.28333854 27.00195312 115.93554688 C26.53660156 116.45761719 26.07125 116.9796875 25.59179688 117.51757812 C24.93179688 117.51757812 24.27179687 117.51757812 23.59179688 117.51757812 C23.59179688 118.17757812 23.59179688 118.83757812 23.59179688 119.51757812 C24.96575874 119.50758537 24.96575874 119.50758537 26.36747742 119.49739075 C35.00426855 119.43725244 43.64098924 119.39158984 52.2779417 119.36214161 C56.71818164 119.34649295 61.1582484 119.32526935 65.59838867 119.29125977 C69.88425712 119.25863768 74.16995912 119.24071909 78.45594215 119.2329464 C80.09020419 119.22740799 81.72445722 119.21659278 83.3586483 119.20038795 C85.64969874 119.17857541 87.94006342 119.17561274 90.23120117 119.17700195 C91.53470016 119.17034012 92.83819916 119.16367828 94.18119812 119.15681458 C97.85944085 119.54588875 99.68250585 120.2777189 102.59179688 122.51757812 C106.00377783 127.3127946 107.43560593 130.50543858 106.59179688 136.51757812 C105.25180121 140.39425008 103.87275692 143.46138357 100.66821289 146.1036377 C96.14018281 148.18474921 91.93436129 147.95190388 87.00585938 147.9375 C85.40747223 147.95020432 85.40747223 147.95020432 83.77679443 147.96316528 C80.25667366 147.98655258 76.73698944 147.9875571 73.21679688 147.98632812 C70.76969223 147.99342786 68.32258925 148.00112658 65.87548828 148.00939941 C60.74767426 148.02284768 55.62001422 148.02441101 50.4921875 148.01855469 C43.91784837 148.01265386 37.3442465 148.04326555 30.77005005 148.08367157 C25.71716321 148.10950512 20.66445501 148.11242997 15.61151123 148.10877991 C13.1873794 148.11047475 10.76323964 148.12015205 8.33917236 148.13792419 C4.95152208 148.16003027 1.56537899 148.15045348 -1.82226562 148.1328125 C-2.82501526 148.14607574 -3.82776489 148.15933899 -4.86090088 148.17300415 C-9.54360329 148.11627347 -11.6803119 148.09013808 -15.45654297 145.11975098 C-16.10059082 144.26103394 -16.74463867 143.40231689 -17.40820312 142.51757812 C-18.30539062 141.40382813 -18.30539062 141.40382813 -19.22070312 140.26757812 C-20.96224961 136.23452311 -21.26431013 132.8346989 -20.40820312 128.51757812 C-18.88183064 125.4390716 -16.68655091 123.07119098 -14.40820312 120.51757812 C-13.4762165 119.43230872 -12.5467296 118.34488989 -11.61914062 117.25585938 C-9.5392985 114.81722777 -7.44931389 112.38781595 -5.35351562 109.96289062 C-2.9737441 107.19631179 -0.66853213 104.38318352 1.59179688 101.51757812 C5.30147903 96.82070404 9.18924039 92.29320294 13.09741211 87.76196289 C16.91159033 83.3322262 20.62943381 78.83289322 24.31445312 74.29492188 C26.87383741 71.17361445 29.47773478 68.09307783 32.09179688 65.01757812 C36.20695725 60.17500117 40.25196489 55.28173172 44.25976562 50.34960938 C45.97445115 48.26728608 47.70281545 46.20451986 49.45507812 44.15429688 C49.94492187 43.58066406 50.43476562 43.00703125 50.93945312 42.41601562 C51.88579838 41.31068437 52.83483467 40.20764886 53.78710938 39.10742188 C56.67536074 35.73353532 59.15639161 32.22660012 61.59179688 28.51757812 C60.21783501 28.53090179 60.21783501 28.53090179 58.81611633 28.54449463 C50.17934877 28.62467882 41.54270642 28.68556204 32.90565205 28.72482681 C28.46534139 28.74569202 24.02533857 28.77398989 19.58520508 28.81933594 C15.29932319 28.86283218 11.01373719 28.88672326 6.7276516 28.8970871 C5.09336883 28.90447173 3.45910207 28.91889238 1.82494545 28.94049835 C-0.46626006 28.96958371 -2.75624667 28.97353216 -5.04760742 28.97167969 C-7.00285591 28.98500336 -7.00285591 28.98500336 -8.99760437 28.99859619 C-13.88186683 28.30973812 -16.15513293 26.02990422 -19.22070312 22.33007812 C-20.91398267 18.3196792 -21.08260935 14.8064986 -20.40820312 10.51757812 C-15.90595734 1.33992326 -9.39175993 -0.07843417 0 0 Z " fill="#2C292A" transform="translate(538.408203125,590.482421875)"/>
<path d="M0 0 C1.02497086 -0.00671722 2.04994171 -0.01343445 3.10597229 -0.02035522 C6.4913519 -0.03934026 9.87653337 -0.0432595 13.26196289 -0.04541016 C15.61698997 -0.05183697 17.97201624 -0.05856524 20.32704163 -0.06558228 C25.26231742 -0.07755577 30.19752321 -0.08126294 35.1328125 -0.08007812 C41.45584008 -0.07987476 47.77841908 -0.10719493 54.10134029 -0.14162254 C58.96466636 -0.1638604 63.82788386 -0.16791664 68.69125557 -0.16685867 C71.02245189 -0.16921863 73.35365103 -0.17806424 75.68479729 -0.19352341 C78.94513267 -0.21312267 82.20449261 -0.20736886 85.46484375 -0.1953125 C86.90747086 -0.21217102 86.90747086 -0.21217102 88.37924194 -0.22937012 C95.37723795 -0.16362418 99.0852347 1.5786429 104.10961914 6.60302734 C106.27400877 10.05001824 106.79711914 12.20867591 106.79711914 16.29052734 C105.04472534 22.56775886 100.55996065 27.01587558 96.21508789 31.66552734 C93.04233296 35.1099398 90.12560345 38.73408941 87.17993164 42.37255859 C84.58956259 45.54469905 81.95036903 48.67102942 79.29711914 51.79052734 C75.96086907 55.71441237 72.66440575 59.66314424 69.42211914 63.66552734 C65.25620192 68.78706715 60.93621719 73.76292492 56.59887695 78.73876953 C52.65860643 83.26927368 48.82521084 87.87347289 45.04711914 92.54052734 C42.00362772 96.26035019 38.88275191 99.91233699 35.76171875 103.56713867 C32.39795872 107.52587384 29.21248261 111.59038687 26.13696289 115.77880859 C25.69481445 116.27767578 25.25266602 116.77654297 24.79711914 117.29052734 C24.13711914 117.29052734 23.47711914 117.29052734 22.79711914 117.29052734 C22.79711914 117.95052734 22.79711914 118.61052734 22.79711914 119.29052734 C23.69612442 119.2816449 24.5951297 119.27276245 25.52137756 119.26361084 C34.01035954 119.18332854 42.49921327 119.12249369 50.9884882 119.08327866 C55.3525168 119.06243968 59.71623065 119.03419005 64.08007812 118.98876953 C68.29464736 118.9451793 72.5089146 118.9213625 76.72369194 118.91101837 C78.32841175 118.90365055 79.93311578 118.88926283 81.53770638 118.86760712 C83.79258542 118.83839649 86.04623051 118.83457849 88.30126953 118.83642578 C89.58256241 118.82754333 90.86385529 118.81866089 92.18397522 118.80950928 C97.32564708 119.49402036 101.02886561 121.48611321 104.70727539 125.23974609 C106.75876639 129.10007861 106.38392209 133.05250608 105.79711914 137.29052734 C104.55770672 140.87549444 102.74608374 143.49719213 99.80648804 145.95469666 C95.34513228 147.93505072 91.16559168 147.73295084 86.3347168 147.72631836 C85.28209152 147.7363942 84.22946625 147.74647003 83.14494324 147.7568512 C79.66691453 147.78533667 76.18931972 147.79120808 72.71118164 147.79443359 C70.29128847 147.80407405 67.87139706 147.81416647 65.45150757 147.82469177 C60.37917019 147.84265449 55.30698608 147.84821261 50.23461914 147.84643555 C43.73883507 147.84613065 37.24403458 147.88709281 30.74848366 147.93875217 C25.75041195 147.97212755 20.75257771 147.97819275 15.75440598 147.97660637 C13.35982242 147.98014421 10.96523258 147.99340115 8.57075882 148.01660347 C5.21924421 148.0460398 1.86986036 148.03735989 -1.48168945 148.01928711 C-2.4678978 148.03614563 -3.45410614 148.05300415 -4.47019958 148.07037354 C-10.43741067 147.98871507 -13.63889066 146.97122988 -17.95089149 142.77271938 C-21.0493153 139.10458991 -20.71719876 135.06436445 -20.66772461 130.44677734 C-19.87631667 125.07318394 -16.80945602 122.15042941 -13.20288086 118.29052734 C-11.77653612 116.54840647 -10.36033601 114.79794432 -8.95288086 113.04052734 C-5.11146988 108.36289085 -1.20887817 103.73988009 2.71020508 99.12744141 C5.60906764 95.71070807 8.46837972 92.26583577 11.29711914 88.79052734 C15.92132975 83.11311574 20.64888724 77.52752729 25.38989258 71.94775391 C27.69607334 69.23186997 29.99640583 66.51104295 32.29711914 63.79052734 C35.0675799 60.51455129 37.83937759 57.239756 40.61743164 53.97021484 C45.0371906 48.76581074 49.44125549 43.54857634 53.79711914 38.29052734 C54.84899414 37.02208984 54.84899414 37.02208984 55.92211914 35.72802734 C57.76051207 33.33811653 59.26859241 30.88556849 60.79711914 28.29052734 C59.88558578 28.30829224 58.97405243 28.32605713 58.03489685 28.34436035 C49.42834742 28.50491293 40.82230353 28.62658373 32.21459866 28.70502472 C27.78954937 28.74670965 23.36574121 28.80320974 18.94140625 28.89404297 C14.66839038 28.98121666 10.39656504 29.02885183 6.12272835 29.04954529 C4.49553754 29.06428376 2.86840917 29.09306727 1.24172783 29.1363678 C-11.45723691 29.46083745 -11.45723691 29.46083745 -15.77127075 26.56863403 C-19.24724546 22.74209196 -21.15105655 19.47380485 -20.95288086 14.16552734 C-20.71970056 10.39657233 -20.33522548 7.68947816 -18.01538086 4.66552734 C-12.31697161 -0.14646269 -7.16202136 -0.00673544 0 0 Z " fill="#2C2929" transform="translate(685.202880859375,590.70947265625)"/>
<path d="M0 0 C4.51825943 2.43986009 8.02060045 5.189221 10 10 C10.5841646 14.05111475 10.53615281 18.06526134 10.50170898 22.15234375 C10.50981346 23.98262619 10.50981346 23.98262619 10.51808167 25.84988403 C10.52842511 29.18489756 10.52089147 32.51891428 10.50437045 35.85383987 C10.49048144 39.35039895 10.4969844 42.84692913 10.50050354 46.34350586 C10.50320264 52.21443998 10.48975612 58.08516931 10.46655273 63.95605469 C10.43994474 70.73511949 10.43819694 77.51384197 10.4499411 84.29294109 C10.46073569 90.82515003 10.45451867 97.35723565 10.44038582 103.88943481 C10.43464055 106.664428 10.43469715 109.43933049 10.43945122 112.21432495 C10.4451276 116.09223289 10.42586469 119.96980096 10.40405273 123.84765625 C10.41080521 125.56844894 10.41080521 125.56844894 10.41769409 127.32400513 C10.34873408 134.70248054 9.46016262 139.17081299 4.5 144.875 C0.83057665 147.71673388 -2.94224648 147.63944555 -7.44140625 147.42578125 C-10.93839971 146.84383883 -12.65925361 145.63333969 -15 143 C-15.598125 142.34 -16.19625 141.68 -16.8125 141 C-18 139 -18 139 -18 135 C-18.98097656 135.53109375 -19.96195312 136.0621875 -20.97265625 136.609375 C-38.38730309 145.8274845 -57.03612865 150.86381807 -76.609375 145.50805664 C-95.23131135 139.6593792 -110.99351985 127.78350718 -120.32130432 110.45613098 C-126.60729931 97.51440347 -127.74709746 85.59831187 -127.62890625 71.45703125 C-127.62973732 69.63099527 -127.63220564 67.80495938 -127.63621521 65.97892761 C-127.63904773 62.18778463 -127.62460833 58.39724091 -127.59692383 54.60620117 C-127.56257509 49.75287841 -127.56897204 44.90060636 -127.5875864 40.04723072 C-127.59815038 36.29222347 -127.58922859 32.5374609 -127.57420158 28.78247643 C-127.56903289 26.99194757 -127.56948559 25.20139306 -127.57574654 23.41086769 C-127.58120226 20.91763662 -127.56082399 18.42591963 -127.53344727 15.93286133 C-127.53997314 15.19986313 -127.54649902 14.46686493 -127.55322266 13.71165466 C-127.46278696 8.8636284 -126.44155313 6.4014527 -123 3 C-118.56777353 0.14367628 -115.23955679 -0.56138108 -110 0 C-104.66260527 1.98844117 -101.54666176 4.90667648 -99 10 C-98.89424507 12.27997382 -98.85389509 14.56306332 -98.84228516 16.84545898 C-98.83466408 17.90203957 -98.83466408 17.90203957 -98.82688904 18.97996521 C-98.81617498 20.51321093 -98.80755887 22.0464724 -98.80076981 23.57974052 C-98.78897011 26.01516189 -98.76950941 28.45040678 -98.74765015 30.88575745 C-98.68610713 37.81171685 -98.63221004 44.73766261 -98.59863281 51.66381836 C-98.57754259 55.90029725 -98.54211514 60.13646132 -98.49787521 64.37275887 C-98.48381531 65.97966841 -98.47501567 67.58663373 -98.47182083 69.19360161 C-98.43937214 83.96669808 -96.85756201 97.14243799 -85.89453125 108.10546875 C-76.31743461 116.05530649 -65.27143185 119.05608686 -53 118 C-42.38168832 115.47869126 -32.32875689 110.06040661 -25.88182068 101.12130737 C-19.55017538 90.61923808 -18.27564956 78.97523643 -18.40841484 66.97240829 C-18.43437886 64.6081975 -18.42886919 62.24568296 -18.41651917 59.88137817 C-18.39605042 54.87905372 -18.41534841 49.87728725 -18.4375 44.875 C-18.4587004 39.03498842 -18.46314226 33.19553356 -18.43699837 27.3555336 C-18.43365746 25.0364093 -18.45476527 22.71837847 -18.47740173 20.39938354 C-18.47489052 18.97572597 -18.47133054 17.55206974 -18.46655273 16.12841797 C-18.47275131 14.89316376 -18.47894989 13.65790955 -18.4853363 12.38522339 C-17.81283361 7.6945134 -15.82309496 4.41345217 -12.0703125 1.50390625 C-7.67032861 -0.62540322 -4.83599011 -1.68208352 0 0 Z " fill="#2D2A2A" transform="translate(489,591)"/>
<path d="M0 0 C9.28970759 6.96038922 15.92255364 15.72338353 19 27 C19.45120431 30.4271443 19.52446721 33.79604563 19.5 37.25 C19.49500488 38.17514404 19.49000977 39.10028809 19.48486328 40.0534668 C19.14544697 53.41125405 13.28420714 63.12099959 3.8125 72.1875 C-0.99546769 76.3144065 -6.10705134 78.76754859 -12 81 C-13.11375 81.433125 -14.2275 81.86625 -15.375 82.3125 C-27.04558965 84.52588769 -38.18937369 82.70064584 -48.75 77.25 C-59.35048604 69.91120197 -67.28904872 60.65645123 -70.55859375 47.88671875 C-72.73949618 33.62400285 -70.60789191 22.88646506 -62.75 10.6875 C-47.88179506 -9.40554051 -20.69143594 -13.25441823 0 0 Z " fill="#FDFDFD" transform="translate(294,627)"/>
<path d="M0 0 C3.51071524 1.75535762 5.26154643 3.04758927 8 5.6875 C14.22905714 11.35873113 21.46458635 15.31283797 29 19 C20.89973192 20.75140931 12.821147 20.78085227 5 18 C5 17.34 5 16.68 5 16 C3.35 15.67 1.7 15.34 0 15 C0 10.05 0 5.1 0 0 Z " fill="#FCCB54" transform="translate(500,304)"/>
<path d="M0 0 C0.99 0.495 0.99 0.495 2 1 C2 23.44 2 45.88 2 69 C4.97 68.01 4.97 68.01 8 67 C6.8125 69 6.8125 69 5 71 C3.35 71 1.7 71 0 71 C0 47.57 0 24.14 0 0 Z " fill="#73696A" transform="translate(221,536)"/>
<path d="M0 0 C2 2 2 2 2.24609566 4.21388435 C2.24425207 5.1412081 2.24240849 6.06853184 2.24050903 7.0239563 C2.24325836 8.08688904 2.24600769 9.14982178 2.24884033 10.2449646 C2.24164978 11.4159671 2.23445923 12.5869696 2.22705078 13.79345703 C2.22734283 15.02269897 2.22763489 16.25194092 2.22793579 17.51843262 C2.22677906 20.8943349 2.21673089 24.26999425 2.20278788 27.64585352 C2.19030718 31.1719253 2.18911212 34.69800012 2.18673706 38.22409058 C2.18051444 44.90350675 2.1640931 51.58285766 2.14403808 58.26224506 C2.12170335 65.86552332 2.11069177 73.46880466 2.10064721 81.07210755 C2.07972751 96.7147762 2.04453641 112.35737969 2 128 C1.67 128 1.34 128 1 128 C0.99576806 127.36885631 0.99153612 126.73771261 0.98717594 126.08744335 C0.88392963 110.73952242 0.77530092 95.39165049 0.66066074 80.04381084 C0.60535211 72.62175256 0.55187398 65.19968947 0.50268555 57.77758789 C0.45981481 51.3094685 0.41352951 44.84138417 0.36312145 38.37331897 C0.3365438 34.94765345 0.31169131 31.52199478 0.29092598 28.09628868 C0.2676969 24.2746759 0.23684546 20.45314562 0.20532227 16.6315918 C0.1995668 15.49223679 0.19381134 14.35288177 0.18788147 13.17900085 C0.17809265 12.13993591 0.16830383 11.10087097 0.15821838 10.03031921 C0.15176583 9.1260403 0.14531328 8.22176138 0.1386652 7.29008007 C0.08906437 4.83667387 0.08906437 4.83667387 -1 2 C-0.67 1.34 -0.34 0.68 0 0 Z " fill="#55424B" transform="translate(497,599)"/>
<path d="M0 0 C0.33 0 0.66 0 1 0 C1.80614913 13.10129443 2.1280819 25.91424998 1 39 C0.34 39 -0.32 39 -1 39 C-0.84152588 39.68860107 -0.68305176 40.37720215 -0.51977539 41.08666992 C0.05211717 44.29211563 0.21238625 47.35894123 0.31640625 50.61328125 C0.35830078 51.86044922 0.40019531 53.10761719 0.44335938 54.39257812 C0.48267578 55.68615234 0.52199219 56.97972656 0.5625 58.3125 C0.62727539 60.28186523 0.62727539 60.28186523 0.69335938 62.29101562 C0.79927227 65.52724288 0.90134885 68.76354458 1 72 C-3.74384222 63.26863262 -2.19650915 51.58936617 -2.1875 41.875 C-2.1882251 41.08218628 -2.1889502 40.28937256 -2.18969727 39.47253418 C-2.18836058 26.22936616 -1.52929884 13.16289357 0 0 Z " fill="#FBC364" transform="translate(497,338)"/>
<path d="M0 0 C0.33 0 0.66 0 1 0 C1.88164975 6.17154827 2.23586714 11.84812803 1 18 C0.67 18.33 0.34 18.66 0 19 C-0.34201376 25.27025224 0.59944465 30.89758025 2 37 C2.33 37 2.66 37 3 37 C3 40.96 3 44.92 3 49 C-1.84300189 44.15699811 -2.18681155 35.86437271 -2.36328125 29.3359375 C-2.36197178 27.01556363 -2.34486814 24.69514847 -2.3125 22.375 C-2.31572266 21.21226562 -2.31894531 20.04953125 -2.32226562 18.8515625 C-2.28125738 12.26041833 -1.70445843 6.36964942 0 0 Z " fill="#FCBF62" transform="translate(315,216)"/>
<path d="M0 0 C0.66 0.33 1.32 0.66 2 1 C2.0588996 4.31242312 2.09389398 7.62470851 2.125 10.9375 C2.14175781 11.86369141 2.15851563 12.78988281 2.17578125 13.74414062 C2.22899155 21.32660862 1.60728332 28.22758593 -2 35 C-2.38218767 33.34385343 -2.71395102 31.67542976 -3 30 C-2.67 29.67 -2.34 29.34 -2 29 C-1.85492658 27.53412282 -1.77289147 26.06188685 -1.71875 24.58984375 C-1.66267578 23.22762695 -1.66267578 23.22762695 -1.60546875 21.83789062 C-1.57066406 20.88076172 -1.53585937 19.92363281 -1.5 18.9375 C-1.26158956 12.56664322 -0.89264038 6.31543071 0 0 Z " fill="#352F30" transform="translate(481,404)"/>
<path d="M0 0 C0.33 0.99 0.66 1.98 1 3 C34.165 3.495 34.165 3.495 68 4 C68 4.33 68 4.66 68 5 C44.57 5 21.14 5 -3 5 C-3 4.34 -3 3.68 -3 3 C-2.34 3 -1.68 3 -1 3 C-0.67 2.01 -0.34 1.02 0 0 Z " fill="#D4D1D2" transform="translate(565,705)"/>
<path d="M0 0 C2.60868369 2.60868369 2.25728913 3.74532364 2.265625 7.375 C2.26820313 8.44234375 2.27078125 9.5096875 2.2734375 10.609375 C2.26570312 11.72828125 2.25796875 12.8471875 2.25 14 C2.25773438 15.11890625 2.26546875 16.2378125 2.2734375 17.390625 C2.27085937 18.45796875 2.26828125 19.5253125 2.265625 20.625 C2.26336914 21.60726563 2.26111328 22.58953125 2.25878906 23.6015625 C2 26 2 26 0 28 C-0.33 27.67 -0.66 27.34 -1 27 C-0.855625 25.865625 -0.71125 24.73125 -0.5625 23.5625 C0.42851936 15.76139892 0.07619292 7.84787029 0 0 Z " fill="#222020" transform="translate(637,237)"/>
<path d="M0 0 C0.33 0 0.66 0 1 0 C0.43434519 7.67846322 -0.1876779 15.34343208 -1 23 C-1.99 22.67 -2.98 22.34 -4 22 C-5.36596289 18.74110375 -4.95502853 17.87579309 -3.6875 14.375 C-3.40648437 13.69179688 -3.12546875 13.00859375 -2.8359375 12.3046875 C-1.39030458 8.31906404 -0.72581737 4.16704562 0 0 Z " fill="#FBBD4A" transform="translate(481,333)"/>
<path d="M0 0 C1.7824918 3.33311475 2.48792856 6.24480943 3 10 C3.33 10 3.66 10 4 10 C4 13.96 4 17.92 4 22 C0.33224605 18.33224605 0.08179759 12.98870385 -0.125 7.9609375 C-0.125 5.30417401 -0.08933217 2.65515068 0 0 Z " fill="#FCB347" transform="translate(314,243)"/>
<path d="M0 0 C3.09511984 3.09511984 2.29406478 6.33298409 2.32226562 10.56054688 C2.31904297 11.67494141 2.31582031 12.78933594 2.3125 13.9375 C2.32861328 15.04802734 2.34472656 16.15855469 2.36132812 17.30273438 C2.36197266 18.36685547 2.36261719 19.43097656 2.36328125 20.52734375 C2.36775269 21.99288696 2.36775269 21.99288696 2.37231445 23.48803711 C1.94602976 26.36413099 1.25044823 27.23601455 -1 29 C-0.83628906 27.73285156 -0.67257812 26.46570313 -0.50390625 25.16015625 C0.07978908 19.90689827 0.11285949 14.71749915 0.0625 9.4375 C0.05798828 8.52419922 0.05347656 7.61089844 0.04882812 6.66992188 C0.0371874 4.44654262 0.02083851 2.22330879 0 0 Z " fill="#FFF9DB" transform="translate(658,400)"/>
<path d="M0 0 C6.93 0 13.86 0 21 0 C16.7830926 3.16268055 16.01540625 3.39369518 11.0625 3.3125 C10.04285156 3.30863281 9.02320313 3.30476563 7.97265625 3.30078125 C4.96490363 2.99644886 2.73119218 2.26248479 0 1 C0 0.67 0 0.34 0 0 Z " fill="#FBC234" transform="translate(510,323)"/>
<path d="M0 0 C1.94539023 3.52106829 3.05706819 7.1475537 4.1875 11 C4.55230469 12.216875 4.91710937 13.43375 5.29296875 14.6875 C5.94211789 17.72881752 6.11269179 19.16511645 5 22 C4.34 20.68 3.68 19.36 3 18 C2.67 18 2.34 18 2 18 C1.93941406 17.39671875 1.87882812 16.7934375 1.81640625 16.171875 C1.69072266 14.97304687 1.69072266 14.97304687 1.5625 13.75 C1.48128906 12.96109375 1.40007812 12.1721875 1.31640625 11.359375 C1.04770264 9.02307595 1.04770264 9.02307595 0.46875 6.875 C-0.1130955 4.54761802 -0.06635793 2.38888559 0 0 Z " fill="#F7C531" transform="translate(476,226)"/>
<path d="M0 0 C0.33 0.66 0.66 1.32 1 2 C0.54625 2.7425 0.0925 3.485 -0.375 4.25 C-2.14037509 7.23755784 -2.60249874 9.58148917 -3 13 C-4.65 13.33 -6.3 13.66 -8 14 C-6.6744419 10.37723685 -5.05653045 7.36494652 -2.875 4.1875 C-2.33617187 3.39730469 -1.79734375 2.60710937 -1.2421875 1.79296875 C-0.83226562 1.20128906 -0.42234375 0.60960937 0 0 Z " fill="#FBBC3C" transform="translate(330,186)"/>
<path d="M0 0 C0.33 0 0.66 0 1 0 C1 2.64 1 5.28 1 8 C1.66 8 2.32 8 3 8 C2.34 12.95 1.68 17.9 1 23 C0.67 23 0.34 23 0 23 C-0.72526532 15.15597666 -1.21074074 7.80255144 0 0 Z " fill="#5A4F4F" transform="translate(504,237)"/>
<path d="M0 0 C0.66 0.33 1.32 0.66 2 1 C1.52949219 1.53109375 1.05898438 2.0621875 0.57421875 2.609375 C-0.04839844 3.31578125 -0.67101562 4.0221875 -1.3125 4.75 C-1.92738281 5.44609375 -2.54226563 6.1421875 -3.17578125 6.859375 C-4.87314734 8.85114506 -6.45477809 10.88898915 -8 13 C-8.99 12.67 -9.98 12.34 -11 12 C-3.70159453 3.55353075 -3.70159453 3.55353075 0 0 Z " fill="#F8C145" transform="translate(342,173)"/>
<path d="M0 0 C-1 2 -1 2 -3.72265625 3.0703125 C-4.82480469 3.41835938 -5.92695313 3.76640625 -7.0625 4.125 C-8.16722656 4.47820313 -9.27195313 4.83140625 -10.41015625 5.1953125 C-11.26480469 5.46085938 -12.11945313 5.72640625 -13 6 C-13 5.01 -13 4.02 -13 3 C-8.79593898 -0.54717649 -5.23066851 -0.2659662 0 0 Z " fill="#363333" transform="translate(259,619)"/>
<path d="M0 0 C0.98248524 4.0527516 1.08159574 7.83861737 1 12 C0.01 12.495 0.01 12.495 -1 13 C-2.13764351 8.73383684 -3 5.43513689 -3 1 C-1 0 -1 0 0 0 Z " fill="#433D3D" transform="translate(365,677)"/>
<path d="M0 0 C0.671875 1.74609375 0.671875 1.74609375 1 4 C-0.109375 6.03515625 -0.109375 6.03515625 -1.75 8.0625 C-2.28109375 8.73410156 -2.8121875 9.40570313 -3.359375 10.09765625 C-4.84079484 11.81539782 -6.36998737 13.42399381 -8 15 C-8.66 14.67 -9.32 14.34 -10 14 C-9.44570313 13.32453125 -8.89140625 12.6490625 -8.3203125 11.953125 C-7.59585938 11.06109375 -6.87140625 10.1690625 -6.125 9.25 C-5.40570312 8.36828125 -4.68640625 7.4865625 -3.9453125 6.578125 C-2.31557412 4.41823076 -1.09215995 2.460234 0 0 Z " fill="#FEF0D8" transform="translate(647,455)"/>
<path d="M0 0 C0 3.63195496 -0.95453155 4.74713911 -3 7.6875 C-3.556875 8.49574219 -4.11375 9.30398438 -4.6875 10.13671875 C-5.120625 10.75160156 -5.55375 11.36648438 -6 12 C-6.99 11.67 -7.98 11.34 -9 11 C-6.03 7.37 -3.06 3.74 0 0 Z " fill="#3B3736" transform="translate(539,693)"/>
<path d="M0 0 C1.53690745 2.41040161 2.09752136 3.50082285 1.5390625 6.359375 C1.23742187 7.14828125 0.93578125 7.9371875 0.625 8.75 C0.32851563 9.54921875 0.03203125 10.3484375 -0.2734375 11.171875 C-0.51320313 11.77515625 -0.75296875 12.3784375 -1 13 C-1.33 13 -1.66 13 -2 13 C-2.05447047 11.58376784 -2.09300508 10.16691809 -2.125 8.75 C-2.14820313 7.96109375 -2.17140625 7.1721875 -2.1953125 6.359375 C-1.9828378 3.79268059 -1.28654105 2.2083933 0 0 Z " fill="#575152" transform="translate(520,597)"/>
<path d="M0 0 C1.90318884 2.85478326 2.4619099 4.41941308 3.125 7.6875 C3.29257812 8.49574219 3.46015625 9.30398438 3.6328125 10.13671875 C3.75398438 10.75160156 3.87515625 11.36648438 4 12 C3.01 11.67 2.02 11.34 1 11 C0.67 7.37 0.34 3.74 0 0 Z " fill="#585254" transform="translate(477,386)"/>
<path d="M0 0 C0.33 0.66 0.66 1.32 1 2 C0.07456291 3.34173403 -0.86577405 4.67320159 -1.8125 6 C-2.33457031 6.7425 -2.85664062 7.485 -3.39453125 8.25 C-3.92433594 8.8275 -4.45414063 9.405 -5 10 C-5.99 10 -6.98 10 -8 10 C-5.36 6.7 -2.72 3.4 0 0 Z " fill="#3E3A3A" transform="translate(685,693)"/>
<path d="M0 0 C0.66 0 1.32 0 2 0 C2.33 2.97 2.66 5.94 3 9 C2.01 9.495 2.01 9.495 1 10 C-0.1577506 6.52674819 -0.06866652 3.63932552 0 0 Z " fill="#272126" transform="translate(337,644)"/>
<path d="M0 0 C-1.44077046 3.36179774 -3.24750021 5.59156268 -6 8 C-6.66 8 -7.32 8 -8 8 C-6.65580512 3.85539913 -4.87800266 0 0 0 Z " fill="#333131" transform="translate(461,468)"/>
<path d="M0 0 C2.14210449 1.76956458 2.96060573 2.87575652 3.8125 5.5625 C3.874375 6.366875 3.93625 7.17125 4 8 C3.34 8.66 2.68 9.32 2 10 C-1.07692308 4.58461538 -1.07692308 4.58461538 -0.6875 1.625 C-0.460625 1.08875 -0.23375 0.5525 0 0 Z " fill="#4B4547" transform="translate(631,215)"/>
<path d="M0 0 C0 3.58912412 -0.66436554 4.10857029 -3 6.6875 C-3.556875 7.31011719 -4.11375 7.93273437 -4.6875 8.57421875 C-5.120625 9.04472656 -5.55375 9.51523437 -6 10 C-6.66 9.67 -7.32 9.34 -8 9 C-5.36 6.03 -2.72 3.06 0 0 Z " fill="#44403F" transform="translate(576,649)"/>
<path d="M0 0 C0.66 0 1.32 0 2 0 C0.73058503 3.91402949 -0.51167694 5.79072873 -4 8 C-4.66 7.67 -5.32 7.34 -6 7 C-5.04882866 5.8274869 -4.08882991 4.66212985 -3.125 3.5 C-2.59132813 2.8503125 -2.05765625 2.200625 -1.5078125 1.53125 C-0.76144531 0.77328125 -0.76144531 0.77328125 0 0 Z " fill="#393534" transform="translate(733,636)"/>
<path d="M0 0 C0.33 1.32 0.66 2.64 1 4 C-0.9375 6.25 -0.9375 6.25 -3 8 C-3.99 7.67 -4.98 7.34 -6 7 C-4.02 4.69 -2.04 2.38 0 0 Z " fill="#474342" transform="translate(588,634)"/>
<path d="M0 0 C0.33 0.99 0.66 1.98 1 3 C-0.40445835 5.2636564 -2.1967913 7.0208685 -4 9 C-4.33 8.01 -4.66 7.02 -5 6 C-3.59554165 3.7363436 -1.8032087 1.9791315 0 0 Z " fill="#373231" transform="translate(613,645)"/>
<path d="M0 0 C2.64 0 5.28 0 8 0 C8.66 1.32 9.32 2.64 10 4 C6.7 3.01 3.4 2.02 0 1 C0 0.67 0 0.34 0 0 Z " fill="#656162" transform="translate(239,732)"/>
<path d="M0 0 C-0.33 0.99 -0.66 1.98 -1 3 C-3.31 3.33 -5.62 3.66 -8 4 C-5.57415142 1.34311822 -3.76063134 0 0 0 Z " fill="#272424" transform="translate(441,482)"/>
<path d="M0 0 C-3.51187196 2.40814077 -5.72656908 3.36629408 -10 3 C-3.66666667 -1.22222222 -3.66666667 -1.22222222 0 0 Z " fill="#3E393B" transform="translate(292,705)"/>
<path d="M0 0 C0.33 0.99 0.66 1.98 1 3 C-1.3125 6.1875 -1.3125 6.1875 -4 9 C-4.66 9 -5.32 9 -6 9 C-4.47291037 5.56404834 -2.40072955 2.88087546 0 0 Z " fill="#3E3938" transform="translate(741,626)"/>
<path d="M0 0 C0.99 0 1.98 0 3 0 C4.35439668 2.70879335 4.06501451 5.00933268 4 8 C1.84622436 5.37801226 0.59927826 3.35595828 0 0 Z " fill="#4A4340" transform="translate(507,271)"/>
</svg>
